C:\Users\israe\Dropbox\PhDWork\ExperimentalData\subject9\055\P9S055W02_filtered35.mot
nRows=13
nColumns=28

name C:\Users\israe\Dropbox\PhDWork\ExperimentalData\subject9\055\P9S055W02_filtered35.mot
datacolumns 28
datarows 13
range 1.6750000000 1.6870000000
endheader
time	ground_force_1_vx	ground_force_1_vy	ground_force_1_vz	ground_force_1_px	ground_force_1_py	ground_force_1_pz	ground_moment_1_mx	ground_moment_1_my	ground_moment_1_mz	ground_force_2_vx	ground_force_2_vy	ground_force_2_vz	ground_force_2_px	ground_force_2_py	ground_force_2_pz	ground_moment_2_mx	ground_moment_2_my	ground_moment_2_mz	ground_force_3_vx	ground_force_3_vy	ground_force_3_vz	ground_force_3_px	ground_force_3_py	ground_force_3_pz	ground_moment_3_mx	ground_moment_3_my	ground_moment_3_mz
        1.6750000000	       -5.0380359788	       25.5552738524	       -2.9895155165	        0.1988394961	        0.0000558755	       -0.3004071324	       -6.5423994285	       -2.0834691882	        3.5265723534	       36.0466000158	      593.9458677153	     -130.7498777358	        0.2029003516	       -0.0000795827	        0.4543649445	      -35.5884980199	       -6.1006144392	      -40.3948075489	        0.0000000000	        0.0000000000	       -0.0000000000	        0.2076431971	        0.0000770316	        1.3583900146	       -0.0000000000	        0.0000000000	       -0.0000000000	
        1.6760000000	       -6.9916224561	       33.5452461188	       -3.1869949527	        0.1988394961	        0.0000558755	       -0.3004071324	       -8.5250865511	       -2.8129450208	        4.6505704789	       35.5709992189	      588.2399198891	     -130.0813142567	        0.2029003516	       -0.0000795827	        0.4543649445	      -35.0770705107	       -6.0927600977	      -40.0231110244	        0.0000000000	        0.0000000000	        0.0000000000	        0.2076431971	        0.0000770316	        1.3583900146	       -0.0000000000	        0.0000000000	       -0.0000000000	
        1.6770000000	       -9.2326165794	       42.2993144053	       -3.1878193311	        0.1988394961	        0.0000558755	       -0.3004071324	      -10.6795320176	       -3.6358801058	        5.8876458310	       35.0820190198	      582.4930807585	     -129.3800133984	        0.2029003516	       -0.0000795827	        0.4543649445	      -34.5615515607	       -6.0829667243	      -39.6470344529	        0.0000000000	        0.0000000000	        0.0000000000	        0.2076431971	        0.0000770316	        1.3583900146	       -0.0000000000	        0.0000000000	       -0.0000000000	
        1.6780000000	      -11.7108216674	       51.5704094028	       -2.9123049481	        0.1988394961	        0.0000558755	       -0.3004071324	      -12.9399528346	       -4.5375135499	        7.2034810572	       34.5794262701	      576.7098360357	     -128.6439731186	        0.2029003516	       -0.0000795827	        0.4543649445	      -34.0416220247	       -6.0716731941	      -39.2666836635	        0.0000000000	        0.0000000000	        0.0000000000	        0.2076431971	        0.0000770316	        1.3583900146	       -0.0000000000	        0.0000000000	       -0.0000000000	
        1.6790000000	      -14.3521676603	       61.1271552069	       -2.2909890959	        0.1988394961	        0.0000558755	       -0.3004071324	      -15.2466960577	       -5.5000487520	        8.5644659812	       34.0639081113	      570.8901424672	     -127.8714881389	        0.2029003516	       -0.0000795827	        0.4543649445	      -33.5177121808	       -6.0593493427	      -38.8824262880	        0.0000000000	        0.0000000000	        0.0000000000	        0.2076431971	        0.0000770316	        1.3583900146	        0.0000000000	       -0.0000000000	        0.0000000000	
        1.6800000000	      -17.0622617346	       70.7789075375	       -1.2810929951	        0.1988394961	        0.0000558755	       -0.3004071324	      -17.5523345781	       -6.5016747542	        9.9411149548	       33.5373525365	      565.0294638760	     -127.0624436755	        0.2029003516	       -0.0000795827	        0.4543649445	      -32.9909368824	       -6.0463793918	      -38.4949241262	       -0.0000000000	        0.0000000000	        0.0000000000	        0.2076431971	        0.0000770316	        1.3583900146	        0.0000000000	       -0.0000000000	        0.0000000000	
        1.6810000000	      -19.7331792150	       80.3757044474	        0.1330713179	        0.1988394961	        0.0000558755	       -0.3004071324	      -19.8205316089	       -7.5171686980	       11.3085174600	       33.0021176956	      559.1230021355	     -126.2173501804	        0.2029003516	       -0.0000795827	        0.4543649445	      -32.4623649382	       -6.0329572003	      -38.1049864436	       -0.0000000000	        0.0000000000	        0.0000000000	        0.2076431971	        0.0000770316	        1.3583900146	        0.0000000000	       -0.0000000000	        0.0000000000	
        1.6820000000	      -22.2523787840	       89.7957862055	        1.9476519776	        0.1988394961	        0.0000558755	       -0.3004071324	      -22.0228312033	       -8.5196590425	       12.6456346755	       32.4600121024	      553.1702937851	     -125.3363943364	        0.2029003516	       -0.0000795827	        0.4543649445	      -31.9325589294	       -6.0191340995	      -37.7131976118	       -0.0000000000	        0.0000000000	        0.0000000000	        0.2076431971	        0.0000770316	        1.3583900146	        0.0000000000	       -0.0000000000	        0.0000000000	
        1.6830000000	      -24.5126492421	       98.9319432870	        4.1390718250	        0.1988394961	        0.0000558755	       -0.3004071324	      -24.1361533957	       -9.4823271320	       13.9343621653	       31.9121564566	      547.1718600191	     -124.4217050902	        0.2029003516	       -0.0000795827	        0.4543649445	      -31.4017326186	       -6.0049917650	      -37.3195308004	       -0.0000000000	        0.0000000000	        0.0000000000	        0.2076431971	        0.0000770316	        1.3583900146	        0.0000000000	       -0.0000000000	        0.0000000000	
        1.6840000000	      -26.4217374888	      107.6849839684	        6.6632119136	        0.1988394961	        0.0000558755	       -0.3004071324	      -26.1411643608	      -10.3802111001	       15.1587747609	       31.3590284367	      541.1238167536	     -123.4779349080	        0.2029003516	       -0.0000795827	        0.4543649445	      -30.8698704673	       -5.9906559073	      -36.9232809655	       -0.0000000000	        0.0000000000	        0.0000000000	        0.2076431971	        0.0000770316	        1.3583900146	        0.0000000000	       -0.0000000000	        0.0000000000	
        1.6850000000	      -27.9102140372	      115.9641965117	        9.4601276325	        0.1988394961	        0.0000558755	       -0.3004071324	      -28.0209749893	      -11.1920733872	       16.3047963803	       30.8007482021	      535.0200668380	     -122.5083019428	        0.2029003516	       -0.0000795827	        0.4543649445	      -30.3365365462	       -5.9761565991	      -36.5233188700	       -0.0000000000	        0.0000000000	        0.0000000000	        0.2076431971	        0.0000770316	        1.3583900146	        0.0000000000	       -0.0000000000	        0.0000000000	
        1.6860000000	      -28.9365318145	      123.6905190401	       12.4573729779	        0.1988394961	        0.0000558755	       -0.3004071324	      -29.7607456377	      -11.9017854960	       17.3603648541	       30.2378937050	      528.8561945353	     -121.5132057610	        0.2029003516	       -0.0000795827	        0.4543649445	      -29.8010416922	       -5.9613982149	      -36.1184232948	       -0.0000000000	        0.0000000000	        0.0000000000	        0.2076431971	        0.0000770316	        1.3583900146	        0.0000000000	       -0.0000000000	        0.0000000000	
        1.6870000000	      -29.4880039749	      130.8012720552	       15.5734818179	        0.1988394961	        0.0000558755	       -0.3004071324	      -31.3486785576	      -12.4989256203	       18.3160986244	       29.6714328041	      522.6294466411	     -120.4930864527	        0.2029003516	       -0.0000795827	        0.4543649445	      -29.2630502568	       -5.9462255098	      -35.7076072199	       -0.0000000000	        0.0000000000	        0.0000000000	        0.2076431971	        0.0000770316	        1.3583900146	        0.0000000000	       -0.0000000000	        0.0000000000	
